<svg xmlns="http://www.w3.org/2000/svg" viewBox="0 0 448.36 72.38"><defs><style>.a{fill:#002b36;}.b{fill:#eee8d5;}.c{fill:#ffffec;}.d{fill:#073642;}.e{fill:#dc322f;}</style></defs><title>logo-logotype-dark-v0</title><rect class="a" x="187.99" y="-187.99" width="72.37" height="448.36" transform="translate(187.99 260.37) rotate(-90)"/><path class="b" d="M68.41,49.27a5.13,5.13,0,0,1,2.06-3.7,17.68,17.68,0,0,0,9.65,3.26,7.49,7.49,0,0,0,4.66-1.32,4.12,4.12,0,0,0,1.73-3.43q0-3.31-4.56-5.33l-5.62-2.4q-6.58-2.88-6.58-8.3a8.4,8.4,0,0,1,3-6.58,11.59,11.59,0,0,1,7.94-2.64,21.82,21.82,0,0,1,9.84,2.45,5.15,5.15,0,0,1-1.78,3.79,17.91,17.91,0,0,0-7.68-2.26,7.49,7.49,0,0,0-4.8,1.32,3.91,3.91,0,0,0-1.63,3.12,3.86,3.86,0,0,0,1.06,2.86A9.75,9.75,0,0,0,78.78,32l5.57,2.35q7.15,3.17,7.15,8.93a8.8,8.8,0,0,1-3,6.91q-3,2.64-9,2.64A19.19,19.19,0,0,1,68.41,49.27Z"/><path class="b" d="M113,30.6q3.36,3.41,3.36,9.82T113,50.23a10.37,10.37,0,0,1-13.82,0q-3.36-3.41-3.36-9.82t3.36-9.82a10.37,10.37,0,0,1,13.82,0Zm-12.38,9.84q0,8.83,5.47,8.83t5.47-8.83a18.6,18.6,0,0,0-.46-4.37,7,7,0,0,0-1.73-3.22,4.69,4.69,0,0,0-6.58,0A7,7,0,0,0,101,36.07,18.55,18.55,0,0,0,100.57,40.44Z"/><path class="b" d="M128.7,48.75h1.87a5.68,5.68,0,0,1,.38,1.92,9.05,9.05,0,0,1-.1,1.44,23.12,23.12,0,0,1-4,.34q-4.56,0-4.56-4.7V17.26l.29-.29h1.73a2.39,2.39,0,0,1,2,.67,3.82,3.82,0,0,1,.53,2.3V46.63Q126.83,48.75,128.7,48.75Z"/><path class="b" d="M154.47,50.19a3.74,3.74,0,0,1-1.82,2.4A4.71,4.71,0,0,1,149,49.51q-3.46,3.36-7.06,3.36a6.85,6.85,0,0,1-5.45-2.11,7.27,7.27,0,0,1-1.85-4.94,7.1,7.1,0,0,1,2.52-5.93,10.41,10.41,0,0,1,6.65-2,33,33,0,0,1,4.75.34v-2q0-4.37-4-4.37a20.69,20.69,0,0,0-7.63,1.87,5,5,0,0,1-1.39-3.46,24.43,24.43,0,0,1,9.84-2.21,7.81,7.81,0,0,1,5.74,2q2,2,2,6V46Q153.13,49,154.47,50.19Zm-11.81-1.06q3.22,0,5.9-3.12V41.4a34.43,34.43,0,0,0-4.32-.24,5.27,5.27,0,0,0-3.7,1.15,3.86,3.86,0,0,0-1.25,3,4.14,4.14,0,0,0,.89,2.83A3.12,3.12,0,0,0,142.67,49.13Z"/><path class="b" d="M159.32,30.75a3.91,3.91,0,0,1,1.73-2.5,5.59,5.59,0,0,1,4.18,4.27q2-4.27,6.29-4.27a12,12,0,0,1,2.5.29,8.13,8.13,0,0,1-1.1,4.37q-.29,0-1.92-.19-3.36,0-5.28,3.74V52.25a14.21,14.21,0,0,1-4.66,0V35.64A6.43,6.43,0,0,0,159.32,30.75Z"/><path class="b" d="M184.19,32.52V52.25a13.93,13.93,0,0,1-4.61,0V34.44a3,3,0,0,0-.46-1.87,1.94,1.94,0,0,0-1.61-.58H177a6.35,6.35,0,0,1-.19-1.63,7.54,7.54,0,0,1,.19-1.73,23.38,23.38,0,0,1,2.88-.19h.62a3.48,3.48,0,0,1,2.71,1.08A4.3,4.3,0,0,1,184.19,32.52ZM178.09,22a5,5,0,0,1,.38-2.06,5.29,5.29,0,0,1,2.64-.58,4.26,4.26,0,0,1,2.45.58,5.06,5.06,0,0,1,.38,2.06,5.06,5.06,0,0,1-.38,2.06,4.36,4.36,0,0,1-2.5.58,4.86,4.86,0,0,1-2.59-.58A5,5,0,0,1,178.09,22Z"/><path class="b" d="M190.47,47.79l8.06-11q2-2.54,3.79-4.66l-.14-.14a59.17,59.17,0,0,1-6.38.29h-5.23a8.73,8.73,0,0,1-.14-1.61,10.6,10.6,0,0,1,.24-2h16a10.2,10.2,0,0,1,.72,2.76,3,3,0,0,1-.62,1.66l-8.06,10.9q-.29.43-3.7,4.7l.14.19q2.11-.19,4.51-.19H202a15.12,15.12,0,0,0,5.23-.62A4.76,4.76,0,0,1,207.7,50q0,2.21-3,2.21h-14.3a10.27,10.27,0,0,1-.67-2.71A3.07,3.07,0,0,1,190.47,47.79Z"/><path class="b" d="M230.65,41.88H216.39a10,10,0,0,0,1.44,5.28A4.88,4.88,0,0,0,222.15,49a14.81,14.81,0,0,0,6.67-1.87,5.14,5.14,0,0,1,1.49,3,15.29,15.29,0,0,1-9,2.69q-5.16,0-7.44-3.46a16.07,16.07,0,0,1-2.28-9,14.71,14.71,0,0,1,2.57-9,8.45,8.45,0,0,1,7.2-3.46,8.89,8.89,0,0,1,7.13,2.9,10.9,10.9,0,0,1,2.5,7.37A20.12,20.12,0,0,1,230.65,41.88Zm-5.4-8.66a4.15,4.15,0,0,0-3.67-1.8,4.29,4.29,0,0,0-3.74,1.85,9.73,9.73,0,0,0-1.44,5.21h10.08v-.62A8.08,8.08,0,0,0,225.25,33.22Z"/><path class="b" d="M243.92,52.87a6.86,6.86,0,0,1-6.17-3.31q-2.11-3.31-2.11-9.1t2.71-9a8.13,8.13,0,0,1,6.41-3.24,11.3,11.3,0,0,1,5.57,1.63V17.26l.29-.29h1.78a2.34,2.34,0,0,1,2,.7,3.83,3.83,0,0,1,.53,2.28V45.53q0,3.46,1.34,4.66a3.74,3.74,0,0,1-1.82,2.4,4.57,4.57,0,0,1-3.55-3A8.88,8.88,0,0,1,243.92,52.87Zm.94-3.89q3.17,0,5.47-3.17v-12a9,9,0,0,0-4.92-1.82,4.21,4.21,0,0,0-3.65,2.23,12.11,12.11,0,0,0-1.42,6.46q0,4.22,1.27,6.29A3.74,3.74,0,0,0,244.86,49Z"/><path class="c" d="M272.36,47.07l12.34-18.62q1.39-2.06,3.74-5.14l-.14-.14a47,47,0,0,1-7.49.38H273a7.71,7.71,0,0,1-.19-1.85,7.94,7.94,0,0,1,.34-2.23h19.63a14.82,14.82,0,0,1,.72,3.26,3.38,3.38,0,0,1-.67,1.82L280.57,43q-1.73,2.64-3.74,5.23l.14.14q3-.29,5.62-.29h5.28a14.15,14.15,0,0,0,5.66-.86,6.85,6.85,0,0,1,.38,2.35q0,2.69-3.36,2.69H272.36a14.7,14.7,0,0,1-.62-3.22A3.91,3.91,0,0,1,272.36,47.07Z"/><path class="c" d="M305.38,33.72l3,0h9.22a8.58,8.58,0,0,1,0,4h-9.22q-1.87,0-3,0V46c0,.26,0,.63,0,1.13s0,.89,0,1.18a29.6,29.6,0,0,1,3.12-.14H321a13.47,13.47,0,0,1-.1,1.87q-.43,2.26-3.07,2.26H303.42a2.6,2.6,0,0,1-2-.79,3.06,3.06,0,0,1-.74-2.18V19.75l.29-.29h19.15a10.07,10.07,0,0,1,.14,1.9,6.87,6.87,0,0,1-.34,2.18H308.36q-1.92,0-3,0l0,3.12Z"/><path class="c" d="M328.13,19.42l10.18-.14q5,0,7.92,2.57a9.18,9.18,0,0,1,2.88,7.22,8.93,8.93,0,0,1-6.19,8.74q2.16.77,3.36,4l2.21,5.81a8,8,0,0,0,2.11,3.46,3.53,3.53,0,0,1-3.22,1.49,2.61,2.61,0,0,1-2-.7,6.54,6.54,0,0,1-1.25-2.28l-2.5-6.67a7.57,7.57,0,0,0-1.8-3,4.45,4.45,0,0,0-3.14-1H332.6v13.3a15.1,15.1,0,0,1-4.8,0V19.75Zm4.46,3.65v12q2.83-.14,5.83-.14a5.23,5.23,0,0,0,4.34-1.68,6.55,6.55,0,0,0,1.34-4.22q0-6-6-6Q334.23,23.11,332.6,23.07Z"/><path class="c" d="M358.61,49.18c-2.94-3-4.27-7.52-4.27-13.34a25.39,25.39,0,0,1,1.25-8,13.47,13.47,0,0,1,3.89-6.07,12,12,0,0,1,8.21-2.88,13.41,13.41,0,0,1,6.14,1.44,12.23,12.23,0,0,1,2.93,2.3c2.65,3.34,4.27,7.49,4.27,13.25q0,9.7-5.14,14.16a12,12,0,0,1-8.21,2.88,11.67,11.67,0,0,1-6.19-1.39A16.16,16.16,0,0,1,358.61,49.18ZM361,44.81l10.9-20.93a7.12,7.12,0,0,0-4.2-1.25,7,7,0,0,0-6.79,4.46,23.23,23.23,0,0,0-1.63,9.12A18.55,18.55,0,0,0,361,44.81ZM374.41,27,363.46,47.83a7.82,7.82,0,0,0,8.4,0,7.29,7.29,0,0,0,2.59-3.26,22.45,22.45,0,0,0,1.63-9A19.57,19.57,0,0,0,374.41,27Z"/><polygon class="d" points="55.15 0 36.33 37.64 30.51 40.55 14.6 72.37 0 72.37 0 0 55.15 0"/><rect class="b" x="25.12" y="26.43" width="19.51" height="19.51" transform="translate(-12.5 19.42) rotate(-26.57)"/><polygon class="c" points="27.6 43.46 33.42 40.55 36.33 31.82 42.15 28.91 39.24 23.1 21.78 31.82 27.6 43.46"/><rect class="e" x="31.62" y="32.94" width="6.5" height="6.5" transform="translate(-12.5 19.42) rotate(-26.57)"/></svg>